<?xml version="1.0" standalone="no"?>
<!DOCTYPE svg PUBLIC "-//W3C//DTD SVG 20010904//EN"
 "http://www.w3.org/TR/2001/REC-SVG-20010904/DTD/svg10.dtd">
<svg version="1.0" xmlns="http://www.w3.org/2000/svg"
 width="512.000000pt" height="512.000000pt" viewBox="0 0 512.000000 512.000000"
 preserveAspectRatio="xMidYMid meet">

<g transform="translate(0.000000,512.000000) scale(0.100000,-0.100000)"
fill="#000000" stroke="none">
<path d="M2278 4554 c-744 -112 -1383 -624 -1654 -1324 -39 -103 -86 -277
-105 -395 -20 -122 -18 -463 4 -604 90 -573 371 -1024 831 -1333 221 -148 508
-270 761 -324 172 -36 235 -31 235 18 0 24 -26 35 -83 37 -27 1 -91 11 -144
22 -315 68 -691 259 -933 473 -391 346 -611 864 -610 1438 2 867 624 1645
1494 1868 190 49 246 55 491 55 246 0 300 -6 495 -56 152 -39 260 -80 400
-149 948 -475 1339 -1563 896 -2495 -305 -641 -912 -1066 -1634 -1144 -51 -6
-97 -13 -102 -16 -16 -10 -11 -54 8 -63 23 -12 169 3 317 33 1035 209 1782
1201 1660 2205 -80 663 -482 1226 -1103 1543 -184 95 -356 153 -577 198 -144
28 -497 36 -647 13z"/>
<path d="M2452 4020 c-92 -13 -166 -36 -261 -82 -115 -55 -233 -170 -284 -278
-60 -126 -72 -185 -71 -355 0 -134 3 -158 26 -227 87 -260 277 -424 552 -477
l91 -18 -80 -80 c-127 -126 -256 -191 -426 -214 -202 -28 -432 59 -553 208
-133 165 -177 429 -106 644 25 76 95 183 145 222 44 35 127 73 177 82 44 8 62
26 53 54 -9 29 -33 33 -98 16 -81 -21 -132 -50 -194 -108 -167 -157 -232 -442
-163 -711 58 -228 222 -389 466 -457 111 -32 286 -32 398 -1 149 42 268 114
374 226 l70 74 17 -61 c39 -138 35 -302 -10 -430 -35 -101 -81 -172 -165 -257
-85 -85 -155 -129 -262 -168 -62 -22 -89 -26 -183 -26 -131 0 -215 19 -333 75
-114 55 -209 145 -260 247 -35 72 -37 80 -37 176 0 56 4 120 9 143 7 36 6 42
-13 52 -50 27 -81 -42 -81 -183 0 -276 247 -522 584 -581 109 -18 162 -19 246
-1 150 32 263 97 385 221 90 91 149 187 192 310 25 74 27 91 27 230 0 121 -5
163 -21 217 l-20 68 26 -6 c426 -100 691 -499 566 -854 -57 -162 -230 -315
-433 -384 -212 -72 -388 -53 -506 55 -30 27 -58 49 -64 49 -13 0 -42 -28 -42
-41 0 -19 81 -96 128 -122 258 -141 717 0 920 282 74 104 97 183 97 331 0 209
-68 363 -230 526 -92 93 -110 106 -215 157 -63 31 -145 64 -182 73 l-68 16 18
30 c29 52 150 174 209 214 95 63 181 87 303 87 89 0 118 -4 190 -28 210 -72
362 -233 417 -445 22 -87 22 -262 -1 -350 -43 -164 -125 -276 -228 -311 -60
-20 -79 -40 -62 -66 8 -13 23 -17 48 -16 126 8 251 158 307 368 17 63 22 110
22 215 0 229 -48 356 -188 495 -215 215 -532 274 -790 146 -112 -56 -187 -122
-286 -251 l-26 -34 -22 59 c-38 101 -54 192 -48 281 17 252 188 460 452 550
69 24 96 28 200 28 139 1 217 -19 349 -87 171 -89 310 -273 310 -411 0 -33 -4
-77 -8 -98 -7 -31 -5 -38 12 -47 30 -16 49 -4 63 37 18 55 14 149 -11 213
-111 299 -486 517 -807 470 -392 -56 -683 -416 -633 -780 9 -68 34 -158 66
-235 7 -18 4 -19 -47 -12 -76 10 -185 49 -256 90 -250 147 -349 454 -249 772
81 256 318 418 611 417 157 0 259 -34 340 -114 46 -44 55 -47 79 -20 21 23 14
41 -36 88 -93 89 -305 138 -486 113z"/>
</g>
</svg>
