<svg fill="#000000" xmlns="http://www.w3.org/2000/svg" width="50" height="50" style=""><rect id="backgroundrect" width="100%" height="100%" x="0" y="0" fill="none" stroke="none"/><g class="currentLayer" style=""><title>Layer 1</title><path d="M47.5078125,15.339953929185867 C47.4609375,15.273547679185867 47.41015625,15.207141429185867 47.3515625,15.148547679185867 C47.30078125,15.093861132860184 47.25,15.039172679185867 47.19140625,14.992297679185867 C47.0546875,14.871203929185867 46.91015625,14.761828929185867 46.7421875,14.679797679185867 L34.77734375,8.6172995865345 L34.06640625,8.257925540208817 C34.06640625,8.257925540208817 34.0625,8.257925540208817 34.0625,8.257925540208817 C33.83984375,8.144644290208817 33.6015625,8.0587058365345 33.359375,8.000113040208817 C33.09375,7.9337067902088165 32.8203125,7.8985505402088165 32.55078125,7.8985505402088165 C31.3515625,7.8985505402088165 30.2265625,8.5274558365345 29.609375,9.5352683365345 L27.84375,12.445422679185867 L22.578125,21.109485179185867 L19.73828125,15.554797679185867 C19.51953125,15.195422679185867 19.21484375,14.914172679185867 18.8515625,14.730578929185867 L6.839844226837158,8.6524558365345 C6.839844226837158,8.6485495865345 6.835937976837158,8.6485495865345 6.832030773162842,8.644644290208817 L6.453125,8.457144290208817 C5.953125,8.203238040208817 5.4375,8.0743308365345 4.921875,8.0743308365345 C3.257812976837158,8.0743308365345 2,9.4219870865345 2,11.211047679185867 L2,38.2657485306263 C2,39.7423110306263 2.949218988418579,41.2930922806263 4.261719226837158,41.9571547806263 L15.16015625,47.4727797806263 C15.71484375,47.7540297806263 16.28125,47.8985610306263 16.84765625,47.8985610306263 C18.67578125,47.8985610306263 20,46.4610610306263 20,44.4766860306263 L20,35.7462172806263 L42,46.8985610306263 L42,46.8868422806263 L42.76953125,47.2774672806263 C43.44140625,47.6173110306263 44.11328125,47.7891860306263 44.76953125,47.7891860306263 C46.640625,47.7891860306263 48,46.3946547806263 48,44.4766860306263 L48,16.7344870865345 C48,16.211047679185867 47.8125,15.7344870865345 47.5078125,15.339953929185867 zM18,44.4766860306263 C18,45.3673110306263 17.5234375,45.8985610306263 16.84765625,45.8985610306263 C16.609375,45.8985610306263 16.34375,45.8321547806263 16.0625,45.6915297806263 L5.164062976837158,40.1719985306263 C4.523437976837158,39.8477797806263 4,38.9884047806263 4,38.2657485306263 L4,11.211047679185867 C4,10.496203929185867 4.378905773162842,10.074328929185867 4.921875,10.074328929185867 C5.113280773162842,10.074328929185867 5.328125,10.125111132860184 5.550780773162842,10.238392382860184 L5.933594226837158,10.433703929185867 C5.933594226837158,10.433703929185867 5.9375,10.433703929185867 5.9375,10.433703929185867 L17.94921875,16.5157370865345 C17.96875,16.527453929185867 17.984375,16.5469870865345 18,16.5626120865345 zM30.5859375,11.781361132860184 L31.3203125,10.574328929185867 C31.58203125,10.144642382860184 32.0625,9.898548632860184 32.55078125,9.898548632860184 C32.6640625,9.898548632860184 32.78125,9.914173632860184 32.89453125,9.945423632860184 C32.98046875,9.964953929185867 33.0703125,9.996203929185867 33.1640625,10.043078929185867 L45.83203125,16.457141429185867 C45.8359375,16.457141429185867 45.8359375,16.461047679185867 45.8359375,16.461047679185867 L45.84765625,16.464953929185867 C45.85546875,16.4688620865345 45.85546875,16.480578929185867 45.86328125,16.4844870865345 C45.92578125,16.535266429185867 45.953125,16.621203929185867 45.91015625,16.691516429185867 L33.29296875,37.4571547806263 L32.00390625,39.5743422806263 L23.64453125,23.203235179185867 zM20,33.50402596592903 L20,20.461047679185867 L28.98046875,38.0548110306263 L20.90234375,33.96496346592903 zM46,44.4766860306263 C46,45.3126235306263 45.50390625,45.7891860306263 44.7734375,45.7891860306263 C44.4453125,45.7891860306263 44.0703125,45.6954360306263 43.67578125,45.4962172806263 L41.8671875,44.5782485306263 L33.7890625,40.4884047806263 L46,20.394641429185867 z" id="svg_1" class="selected" stroke="#000000" stroke-opacity="1" opacity="1" stroke-width="2"/></g></svg>